PathFileType	4	(X/Y/Z)	C:/Users/opensim2020/Desktop/walking_exp_matlab/subject01_walking07_straight_02.trc	
DataRate	CameraRate	NumFrames	NumMarkers	Units	OrigDataRate	OrigDataStartFrame	OrigNumFrames	
100.00	100.00	7	43	mm	100.00	1562	178	
Frame#	Time	LFHD			RFHD			LBHD			RBHD			C7			T10			CLAV			STRN			RBAK			LSHO			LUPA			LELB			LFRM			LWRA			LWRB			LFIN			RSHO			RUPA			RELB			RFRM			RWRA			RWRB			RFIN			LASI			RASI			LPSI			RPSI			LTHI			LKNE			LTIB			LANK			LHEE			LTOE			RTHI			RKNE			RTIB			RANK			RHEE			RTOE			*39			*40			*41			*42			
		X1	Y1	Z1	X2	Y2	Z2	X3	Y3	Z3	X4	Y4	Z4	X5	Y5	Z5	X6	Y6	Z6	X7	Y7	Z7	X8	Y8	Z8	X9	Y9	Z9	X10	Y10	Z10	X11	Y11	Z11	X12	Y12	Z12	X13	Y13	Z13	X14	Y14	Z14	X15	Y15	Z15	X16	Y16	Z16	X17	Y17	Z17	X18	Y18	Z18	X19	Y19	Z19	X20	Y20	Z20	X21	Y21	Z21	X22	Y22	Z22	X23	Y23	Z23	X24	Y24	Z24	X25	Y25	Z25	X26	Y26	Z26	X27	Y27	Z27	X28	Y28	Z28	X29	Y29	Z29	X30	Y30	Z30	X31	Y31	Z31	X32	Y32	Z32	X33	Y33	Z33	X34	Y34	Z34	X35	Y35	Z35	X36	Y36	Z36	X37	Y37	Z37	X38	Y38	Z38	X39	Y39	Z39	X40	Y40	Z40	X41	Y41	Z41	X42	Y42	Z42	X43	Y43	Z43	

134	1.330	-1015.09595	-322.74564	1659.50903	-1120.68237	-368.15320	1666.96863	-1059.02820	-211.14925	1619.48706	-1170.98450	-256.44327	1627.48987	-1102.00354	-179.28244	1426.12097	-1111.16748	-140.04514	1133.60266	-1084.67090	-322.11774	1357.82068	-1078.76025	-363.30121	1202.56079	-1189.27393	-132.58928	1235.67114	-930.28876	-244.38605	1385.98669	-857.35535	-181.71956	1203.31592	-870.36157	-141.37239	1061.02930	-846.33112	-144.12488	947.61237	-866.61212	-183.45747	812.50964	-841.92352	-129.84270	825.68219	-840.52698	-149.80223	740.77521	-1242.18774	-280.30493	1391.92102	-1354.40381	-245.02155	1193.62463	-1363.06946	-260.81042	1067.14514	-1386.08655	-337.59705	969.22461	-1359.96704	-460.62521	906.08521	-1396.35413	-423.04950	881.80499	-1390.99524	-493.81174	833.19507	-990.92236	-307.72296	928.04803	-1209.53723	-313.07480	924.27527	-1045.51172	-123.36953	936.21210	-1189.00476	-127.27322	944.08459	-912.14813	-334.24411	605.61975	-932.07349	-370.63901	478.98145	-917.48358	-383.96832	295.43713	-958.23065	-450.78491	79.98391	-1017.34821	-427.12009	36.67466	-936.91516	-597.27515	89.09608	-1263.18823	-203.55193	599.87994	-1238.60583	-176.81209	441.07645	-1245.89587	-83.00948	290.86292	-1198.85767	-5.92635	97.65483	-1150.62537	51.35796	71.97081	-1193.83923	-135.15923	33.78603	-1100.80835	-351.00827	1700.45032	-3101.81299	1973.12585	1023.45062	-3140.65845	2012.60754	1022.05353			 
135	1.340	-1012.58954	-332.30841	1658.67676	-1118.22546	-377.88583	1665.95801	-1056.71533	-220.77640	1618.58057	-1168.58862	-266.15680	1626.63513	-1099.28589	-189.02975	1424.92126	-1109.30396	-150.02162	1132.42310	-1082.61292	-332.06458	1357.06482	-1076.89526	-373.23874	1201.79688	-1187.19458	-142.28749	1234.61194	-928.10889	-254.00406	1384.75098	-855.31641	-191.47383	1201.87244	-868.75043	-151.01326	1059.69690	-844.87958	-153.54250	946.30890	-865.38623	-192.56744	811.13324	-840.51727	-139.00755	824.41980	-839.34021	-158.59605	739.48328	-1240.21802	-289.76511	1391.22144	-1352.38171	-255.10918	1192.98706	-1361.37341	-270.87576	1066.48926	-1384.48291	-347.82782	969.03656	-1357.91858	-470.93060	905.84448	-1394.66406	-433.62866	881.75610	-1389.04431	-504.36740	833.26624	-989.77936	-318.39175	926.75385	-1208.35999	-323.20129	923.33502	-1043.50415	-133.76381	935.13562	-1187.06799	-137.25929	943.34747	-911.33197	-345.27579	605.01160	-931.45221	-380.76193	478.33170	-916.97107	-395.52505	294.40192	-958.25793	-463.96078	79.27901	-1017.30396	-440.39557	36.11149	-937.64697	-610.55365	89.24495	-1262.44678	-212.01491	599.52356	-1238.27087	-184.33392	440.71411	-1245.77832	-87.95996	291.98337	-1199.48535	-7.60857	99.91277	-1151.13379	50.40924	75.24284	-1193.96411	-135.50192	33.89940	-1098.28784	-360.77536	1699.34143	-3101.92920	1973.14917	1023.42236	-3140.73120	2012.56909	1022.05139			 
136	1.350	-1010.08014	-342.06592	1657.44434	-1115.73450	-387.59006	1664.99414	-1054.21057	-230.46149	1617.57214	-1166.05457	-275.83539	1625.77283	-1097.47620	-198.37210	1424.01343	-1107.37463	-160.13322	1131.28564	-1080.34216	-341.62167	1356.29395	-1074.96399	-383.25156	1201.08105	-1184.94775	-152.08463	1233.50745	-925.85284	-263.65433	1383.51685	-853.18835	-201.49928	1200.46790	-866.85638	-161.19067	1058.29041	-843.24249	-163.43530	944.92700	-864.00311	-202.06041	809.69916	-839.07098	-148.60715	823.05505	-837.92889	-168.12807	738.08148	-1237.81848	-299.32324	1390.36768	-1350.31689	-265.00897	1192.37024	-1359.51379	-280.78873	1065.87769	-1382.47546	-357.88428	968.27252	-1355.80261	-480.87903	905.30609	-1392.61121	-443.68271	881.15729	-1387.12891	-514.46912	832.87415	-988.51215	-329.25504	925.66046	-1207.04309	-333.44235	922.36774	-1041.52002	-144.30261	934.14252	-1184.87207	-147.71666	942.44940	-911.04919	-357.69662	604.71313	-931.01959	-392.28790	477.44641	-916.80469	-406.09900	293.10565	-958.42627	-474.69836	78.09304	-1017.49622	-450.76614	35.06271	-938.53839	-621.32019	88.03298	-1261.69531	-220.82675	599.12573	-1237.52405	-191.93414	440.24542	-1245.86218	-93.41645	293.01016	-1199.94836	-9.30655	102.48753	-1152.08875	49.43391	78.89257	-1194.06824	-135.70039	33.88018	-1095.72327	-370.48474	1698.41357	-3102.01611	1973.12280	1023.22382	-3140.59180	2012.58984	1022.00848			 
137	1.360	-1007.51550	-351.68802	1656.41357	-1113.06238	-397.21536	1664.04358	-1051.75537	-240.07742	1616.74951	-1163.47351	-285.48276	1624.95813	-1094.78271	-208.12347	1422.99573	-1105.40063	-170.44148	1130.12341	-1078.04932	-351.48566	1355.53491	-1072.82397	-393.32474	1200.42505	-1182.62439	-161.94864	1232.39941	-923.50488	-273.31558	1382.31897	-851.09290	-211.68887	1198.97925	-864.91302	-171.52850	1056.86316	-841.33887	-173.73929	943.52008	-862.43939	-212.12755	808.25696	-837.18927	-158.80745	821.68292	-836.41364	-178.03355	736.66211	-1235.67090	-308.82169	1389.72083	-1348.04504	-274.74197	1191.75366	-1357.91199	-290.53937	1065.51550	-1380.81445	-367.63614	967.82916	-1353.63562	-490.45206	904.50922	-1390.77966	-453.36966	880.48163	-1385.09082	-524.07782	832.21735	-987.03064	-339.98474	924.58588	-1205.60059	-343.92615	921.48206	-1039.58459	-154.86040	933.26379	-1182.87585	-158.09494	941.63452	-910.94543	-371.13058	604.76868	-930.81732	-404.02719	476.75458	-916.84338	-416.13367	291.85834	-958.98114	-482.94049	76.30271	-1018.06158	-458.84674	33.63719	-939.73584	-630.06714	85.30170	-1260.69287	-230.06747	598.61401	-1237.32629	-200.39653	439.58093	-1245.62781	-99.06715	294.14780	-1200.56421	-11.25802	105.08620	-1152.87415	48.00747	82.96963	-1194.20679	-135.93626	34.11888	-1093.05652	-380.18643	1697.56824	-3102.07422	1972.92932	1023.78619	-3140.71362	2012.47754	1021.96204			 
138	1.370	-1004.88086	-361.13873	1655.46960	-1110.41016	-406.76788	1663.15527	-1049.14392	-249.58565	1615.78931	-1160.87915	-295.06244	1624.08948	-1092.09290	-217.88026	1421.67407	-1103.38562	-180.79297	1128.92786	-1075.65271	-361.35809	1354.73340	-1070.66248	-403.56796	1199.71606	-1180.28223	-171.93913	1231.22168	-921.10419	-282.88058	1381.14722	-848.76489	-221.94148	1197.49670	-862.70068	-181.98117	1055.48035	-839.38885	-184.43719	942.01898	-860.74890	-222.65829	806.76276	-835.09430	-169.55870	820.18079	-834.70587	-188.67784	735.19098	-1233.25452	-318.43713	1389.00647	-1345.64075	-284.39651	1191.07629	-1355.92041	-300.26550	1064.95032	-1378.66565	-377.20007	967.18585	-1351.45776	-499.76450	903.41296	-1388.89233	-462.75595	879.80774	-1383.16345	-533.17542	831.19482	-985.40857	-351.09448	923.70160	-1204.02087	-354.48511	920.62213	-1037.61133	-165.78351	932.31396	-1180.78613	-168.83873	940.79138	-911.03442	-384.84100	604.55664	-930.75134	-416.10648	476.03680	-917.13416	-425.23053	290.17859	-959.73523	-489.63339	74.17220	-1018.64606	-464.18634	32.50466	-941.27460	-636.74261	80.98663	-1259.75476	-239.74321	598.05200	-1236.87720	-209.17264	438.97073	-1245.48267	-104.70518	295.70276	-1201.29114	-13.43615	108.00816	-1153.63928	46.26071	87.05836	-1194.40491	-136.43759	34.25967	-1090.40784	-389.78806	1696.64026	-3101.93823	1973.11487	1023.72095	-3140.66797	2012.65698	1022.03217			 
139	1.380	-1002.14209	-370.70889	1654.43750	-1107.69543	-416.22900	1662.27112	-1046.76831	-259.31482	1614.84180	-1158.19177	-304.57419	1623.15015	-1090.11426	-227.28574	1420.63049	-1101.27258	-191.36116	1127.68689	-1073.11194	-371.34567	1353.91907	-1068.36169	-413.95663	1199.05139	-1177.85571	-182.01299	1230.05713	-918.59924	-292.61353	1379.95837	-846.48090	-232.51758	1195.97607	-860.44910	-192.84511	1053.96033	-837.26392	-195.39824	940.52136	-858.80170	-233.80612	805.35791	-833.06982	-180.70711	818.67236	-832.81824	-199.75757	733.61121	-1230.51025	-328.18103	1388.14417	-1343.15527	-293.90457	1190.44580	-1353.72473	-309.78000	1064.40393	-1376.55481	-386.36200	966.24994	-1349.27344	-508.36926	901.84412	-1387.02710	-471.56122	878.54944	-1381.15759	-541.83289	829.82404	-983.59229	-362.25058	922.84485	-1202.31616	-365.33176	919.68762	-1035.63452	-176.77977	931.34308	-1178.77673	-179.34889	939.97839	-911.31140	-398.72586	604.22723	-930.92883	-427.97836	475.40955	-917.41315	-434.04004	288.48178	-960.59039	-494.64587	71.86957	-1019.06873	-466.90015	31.90047	-943.37805	-641.67084	75.81306	-1258.62781	-249.97185	597.39905	-1236.50598	-218.70673	438.13449	-1245.43433	-111.15169	297.03290	-1201.81750	-15.84025	111.14838	-1154.39844	44.24746	91.71645	-1194.51196	-136.60162	34.18529	-1087.68616	-399.21588	1695.75757	-3101.98560	1973.12427	1023.38074	-3140.70972	2012.60791	1021.91718			 
140	1.390	-999.36316	-380.04825	1653.50513	-1104.92407	-425.62936	1661.37976	-1043.75513	-268.56345	1613.76575	-1155.40930	-313.97037	1622.18958	-1087.45972	-236.95291	1419.43762	-1098.99268	-202.10524	1126.36084	-1070.46692	-381.46640	1353.13452	-1065.92822	-424.38242	1198.38782	-1175.41943	-192.20924	1228.83154	-915.91321	-302.35510	1378.80750	-843.95819	-242.97957	1194.43713	-858.18866	-204.23592	1052.24170	-834.97253	-206.79610	938.98792	-856.65381	-245.39381	803.84930	-830.76068	-192.34436	817.09210	-830.74799	-211.60596	732.07104	-1227.87830	-337.91461	1387.40271	-1340.59106	-303.37683	1189.83069	-1351.48523	-319.14056	1063.86902	-1374.53088	-395.29358	965.42065	-1347.07520	-516.89557	900.19257	-1385.04517	-480.07123	877.31256	-1379.15295	-550.05786	828.15594	-981.62952	-373.64819	921.97296	-1200.50439	-376.33606	918.83337	-1033.57385	-187.98114	930.29907	-1176.60974	-190.72575	939.15576	-911.92853	-412.26651	603.64136	-931.06604	-440.51141	474.44925	-917.86279	-442.22244	286.32211	-961.86389	-497.34396	69.17324	-1019.74677	-468.30234	31.02060	-946.34332	-645.60571	68.76131	-1257.45569	-260.71472	596.63831	-1236.11548	-228.87399	437.28177	-1245.26013	-117.82836	298.53113	-1202.46741	-18.52708	114.57251	-1154.73755	42.14194	96.54960	-1194.68140	-137.00533	34.24380	-1084.95654	-408.77615	1694.97717	-3101.98975	1973.15015	1023.31030	-3140.72217	2012.51611	1021.98859			 
